<?xml version="1.0" encoding="UTF-8" standalone="no"?>
<!DOCTYPE svg PUBLIC "-//W3C//DTD SVG 20010904//EN"
              "http://www.w3.org/TR/2001/REC-SVG-20010904/DTD/svg10.dtd">

<svg xmlns="http://www.w3.org/2000/svg" width="67.7392mm" height="67.7392mm" viewBox="0 0 240 240"> <path id="Selection" fill="none" stroke="black" stroke-width="1" d="M 65.03,36.02 C 65.02,36.01 80.63,30.59 88.12,30.31 88.12,30.31 105.00,30.31 105.00,30.31 122.96,33.06 141.23,44.19 150.45,60.04 160.38,77.09 162.21,94.06 157.50,113.00 157.50,113.00 153.99,123.12 151.81,126.25 149.56,129.80 147.10,132.09 147.10,132.09 147.10,132.09 147.04,132.13 147.04,132.13 147.04,132.13 195.00,180.00 195.00,180.00 198.01,183.01 209.69,192.91 208.66,197.00 208.03,199.54 199.54,208.03 197.00,208.46 195.80,208.96 195.09,208.77 194.00,208.46 191.59,207.10 177.95,192.95 175.00,190.00 175.00,190.00 132.00,147.00 132.00,147.00 130.20,150.01 126.06,151.98 123.00,153.61 113.19,158.84 101.97,160.24 91.00,159.99 86.32,159.88 85.34,159.34 81.00,158.45 57.40,153.60 39.27,137.25 32.71,114.00 31.37,109.25 30.15,106.32 30.16,101.28 30.16,88.29 29.57,85.95 33.37,73.00 34.78,68.22 36.03,65.07 36.03,65.05 36.03,65.05 40.00,58.00 40.00,58.00 40.00,58.00 58.00,40.00 58.00,40.00 58.00,40.00 65.03,36.02 65.03,36.02 Z M 138.00,79.00 C 133.45,73.55 131.82,63.72 117.92,56.05 110.40,51.91 103.65,50.01 95.02,50.06 88.19,50.09 80.54,51.54 74.41,54.63 68.97,57.37 64.33,61.35 60.33,65.91 56.86,69.86 56.00,72.23 53.79,76.83 50.76,83.15 50.08,89.61 50.21,96.59 50.81,129.66 86.97,150.38 116.01,134.92 132.12,126.35 132.56,117.51 138.00,111.00 138.00,111.00 139.72,95.87 139.72,95.87 139.72,95.87 138.00,79.00 138.00,79.00 Z M 88.00,62.00 C 88.00,62.00 102.00,62.00 102.00,62.00 102.00,62.00 102.00,109.00 102.00,109.00 102.00,109.00 88.00,109.00 88.00,109.00 88.00,109.00 88.00,62.00 88.00,62.00 Z M 88.00,118.00 C 88.00,118.00 102.00,118.00 102.00,118.00 102.00,118.00 102.00,133.00 102.00,133.00 102.00,133.00 88.00,133.00 88.00,133.00 88.00,133.00 88.00,118.00 88.00,118.00 Z" /> </svg>
